<?xml version="1.0" standalone="no"?><!DOCTYPE svg PUBLIC "-//W3C//DTD SVG 1.1//EN" "http://www.w3.org/Graphics/SVG/1.1/DTD/svg11.dtd"><svg width="200.1953125" height="200" viewBox="0 0 200.1953125 200" version="1.1" xmlns="http://www.w3.org/2000/svg" xmlns:xlink="http://www.w3.org/1999/xlink"><defs><style type="text/css"><![CDATA[
@font-face { font-family: ifont; src: url("//at.alicdn.com/t/font_1442373896_4754455.eot?#iefix") format("embedded-opentype"), url("//at.alicdn.com/t/font_1442373896_4754455.woff") format("woff"), url("//at.alicdn.com/t/font_1442373896_4754455.ttf") format("truetype"), url("//at.alicdn.com/t/font_1442373896_4754455.svg#ifont") format("svg"); }

]]></style></defs><g class="transform-group"><g transform="scale(0.1953125, 0.1953125)"><path d="M478.597858 0.997079c-232.419085 16.750925-422.861149 183.462512-468.527361 410.297955-7.07926 35.3963-9.571957 61.120935-9.571957 100.704966 0 32.205648 0.797663 43.372931 4.586563 71.291139 15.155599 109.778384 67.103408 213.27517 146.470886 292.044401 84.95112 84.352872 194.031548 134.904771 316.572541 146.869718 19.84187 1.89445 72.986173 1.595326 93.226874-0.498539 106.787147-11.366699 199.61519-50.452191 281.275949-118.45297 16.152678-13.460565 47.560662-44.868549 61.120935-61.220643 69.496397-83.754625 109.379552-179.77332 118.752093-286.361052 1.89445-21.836027 1.89445-65.508082 0-87.344109-9.372541-106.587731-49.355404-203.005258-118.752093-286.361052-13.659981-16.352093-44.968257-47.760078-61.120935-61.220643-81.361636-67.701655-174.688218-107.086271-280.27887-118.253554-17.349172-1.89445-66.305745-2.692113-83.754625-1.495618zm317.769036 154.248101c12.363778 2.891529 20.938656 7.278676 27.220253 13.859396 11.765531 12.463486 16.850633 33.402142 15.654138 64.710419-0.897371 24.827264-5.483934 40.680818-14.657059 50.651607-8.375463 9.173126-19.941577 13.659981-39.783447 15.654138-7.278676 0.797663-92.329503 0.997079-274.794937 0.797663-249.867965-0.299124-264.624732-0.498539-271.604284-2.193574-26.223174-6.281597-35.196884-15.753846-40.680818-43.173515-2.592405-13.261149-2.392989-46.164752 0.398832-59.226485 5.982473-27.718793 20.140993-39.284907 52.047517-42.674976 4.187731-0.498539 126.728724-0.797663 272.30224-0.697955l264.72444 0.199416 9.173126 2.093866zm-61.519766 171.198442c26.522298 3.988315 43.372931 14.357936 52.645764 32.205648 9.871081 19.044206 10.170204 22.63369 10.170204 112.669912 0 48.059202-0.398832 78.669523-1.096787 85.250243-2.093866 19.143914-7.677507 35.994547-13.460565 40.58111-5.284518 4.187731-10.768452 2.193574-21.836027-7.876923-8.47517-7.677507-17.548588-12.662902-35.196884-19.34333-25.325803-9.571957-45.466796-13.261149-67.901071-12.26407-21.437196 0.897371-38.985784 6.481013-56.63408 17.847712-9.771373 6.381305-15.155599 12.064654-23.531061 24.926972-3.988315 6.181889-8.774294 12.463486-10.469328 13.959104-5.483934 4.586563-10.36962 4.985394-58.329114 4.586563-38.287829-0.299124-44.569426-0.498539-47.760078-1.994158-2.991237-1.39591-4.387147-3.090944-8.375463-10.967868-10.86816-21.337488-34.598637-37.29075-65.208958-43.971178-13.859396-2.991237-40.182278-2.891529-54.839338 0.199416-21.138072 4.486855-34.89776 10.469328-54.440506 23.531061-14.557352 9.771373-19.143914 11.665823-23.231938 9.372541-3.689192-2.093866-6.680428-10.36962-7.976631-22.035443-1.495618-13.360857-1.495618-169.603116 0-181.767478 4.885686-39.584031 23.231938-58.827653 62.118014-64.810127 12.76261-1.994158 412.192405-1.994158 425.353846-0.099708zm-58.329114 258.841675c26.92113 2.592405 52.246933 12.662902 65.807205 26.322882 15.055891 15.155599 18.844791 34.399221 12.064654 60.42298-1.39591 5.284518-2.791821 11.964946-3.190652 14.956183-0.498539 4.885686-0.398832 5.68335 1.595326 7.478092 2.093866 1.89445 3.988315 1.994158 37.789289 2.592405 33.202726 0.498539 35.994547 0.697955 43.771762 2.791821 23.531061 6.580721 32.405063 22.434275 33.800974 60.42298 0.897371 24.52814-2.592405 46.065044-9.472249 58.727945-5.68335 10.469328-15.753846 17.648296-29.812658 21.337488-6.381305 1.595326-25.724635 1.695034-315.376047 1.695034-291.944693 0-308.994742-0.099708-316.572541-1.794742-16.352093-3.589484-26.721714-10.668744-32.205648-21.935735-6.580721-13.360857-9.571957-35.894839-8.076339-61.320351 1.794742-28.516456 10.070497-45.267381 26.42259-53.044596 11.964946-5.783057 15.454722-6.181889 56.733788-6.879844 39.584031-0.697955 41.777605-0.997079 44.768841-5.284518 2.293281-3.190652 1.994158-7.677507-1.39591-21.23778-3.589484-14.15852-4.785979-29.114703-3.090944-37.589873 3.7889-17.847712 18.445959-30.710029 46.164752-40.481402 14.258228-5.085102 24.129309-6.481013 39.683739-5.882765 16.252386 0.697955 27.120545 3.190652 38.68666 8.774294 16.750925 8.076339 24.129309 19.243622 37.589873 56.733788 12.363778 34.399221 15.55443 40.780526 22.035443 43.472639 4.287439 1.794742 95.221032 2.093866 101.602337 0.299124 7.278676-1.994158 10.86816-7.07926 15.55443-22.135151 14.856475-47.859786 19.34333-59.027069 26.821422-67.701655 8.97371-10.36962 25.924051-18.645375 42.375852-20.639533 9.970789-1.196495 13.560273-1.196495 25.924051-0.099708zM403.118987 445.694255c-4.187731 2.492697-4.785979 5.68335-4.686271 23.431353 0 15.654138 1.096787 20.539825 4.985394 22.334567 3.7889 1.695034 229.228432 1.595326 232.718208-0.199416 4.686271-2.392989 5.483934-5.783057 5.483934-22.63369 0-17.847712-0.897371-21.337488-6.082181-23.531061-2.791821-1.196495-22.63369-1.39591-116.259396-1.39591-110.177215 0-113.068744 0.099708-116.159688 1.994158z" fill="#272636"></path></g></g></svg>