<?xml version="1.0" standalone="no"?><!DOCTYPE svg PUBLIC "-//W3C//DTD SVG 1.1//EN" "http://www.w3.org/Graphics/SVG/1.1/DTD/svg11.dtd"><svg width="200" height="200" viewBox="0 0 200 200" version="1.1" xmlns="http://www.w3.org/2000/svg" xmlns:xlink="http://www.w3.org/1999/xlink"><defs><style type="text/css"><![CDATA[
@font-face { font-family: ifont; src: url("//at.alicdn.com/t/font_1442373896_4754455.eot?#iefix") format("embedded-opentype"), url("//at.alicdn.com/t/font_1442373896_4754455.woff") format("woff"), url("//at.alicdn.com/t/font_1442373896_4754455.ttf") format("truetype"), url("//at.alicdn.com/t/font_1442373896_4754455.svg#ifont") format("svg"); }

]]></style></defs><g class="transform-group"><g transform="scale(0.1953125, 0.1953125)"><path d="M86.438369 67.202558c-6.793925 1.63709-13.915268 5.811671-19.808793 11.705196-6.139089 6.139089-9.003997 10.886651-11.541487 18.908393-1.391527 4.747562-1.473381 19.645084-1.473381 428.099121 0 408.454037 0.081855 423.351559 1.473381 428.099121 4.665707 15.22494 15.22494 25.784173 30.44988 30.44988 4.747562 1.391527 19.645084 1.473381 428.099121 1.473381 408.454037 0 423.351559-0.081855 428.099121-1.473381 7.366906-2.291926 12.523741-5.238689 17.435012-9.904396 5.811671-5.402398 10.395524-12.523741 12.441886-19.153957 1.63709-5.238689 1.63709-8.594724 1.63709-428.99952 0-287.80048-0.327418-424.82494-0.9004-427.36243-3.356035-14.570104-16.207194-27.584972-31.104716-31.513989-3.847162-1.064109-63.273541-1.227818-428.017266-1.145963-251.784492 0.081855-424.906795 0.409273-426.789448 0.818545zm683.403357 170.584812c9.331415 1.391527 18.417266 4.17458 23.73781 7.366906 4.747562 2.701199 11.295923 10.14996 13.915268 15.634213 5.238689 11.05036 7.694325 30.040608 6.220943 47.721183-2.946763 34.951878-14.897522 47.393765-48.785292 50.831655-6.466507 0.654836-78.744045 0.818545-254.567546 0.654836l-245.563549-0.327418-7.366906-1.718945c-18.990248-4.420144-27.421263-10.559233-32.659952-23.655955-4.010871-9.986251-4.993125-17.189448-4.993125-36.752678 0.081855-15.879776 0.327418-18.908393 1.882654-25.3749 1.964508-7.776179 5.07498-14.733813 8.758433-19.563229 5.238689-6.875779 17.516867-12.441886 32.332534-14.815667 5.647962-0.9004 52.305036-1.064109 252.848601-1.145963 216.505196-0.081855 246.873221 0.081855 254.240128 1.145963zm-50.422382 143.90024c18.253557 3.274181 29.467626 8.021743 38.471623 16.534612 4.747562 4.501998 6.548361 6.957634 9.495124 13.014868 8.185452 16.616467 8.840288 24.228937 8.349161 100.108074-0.245564 49.603837-0.572982 59.180815-1.718945 66.465867-2.701199 16.534612-7.694325 28.157954-13.178577 30.695444-5.07498 2.455635-9.331415 0.818545-18.580975-7.039488-9.740687-8.103597-26.930136-15.552358-50.340528-21.609592-31.104716-7.939888-59.180815-6.957634-83.655316 3.028617-15.961631 6.548361-26.848281 14.651958-34.460751 25.866027-6.793925 9.904396-9.658833 13.260432-13.342286 15.22494-3.356035 1.800799-3.929017 1.800799-42.318785 2.046363-21.364029 0.163709-41.909512 0.081855-45.592966-0.245564-8.758433-0.736691-11.132214-2.291926-14.979376-9.740687-13.260432-26.029736-54.18769-42.564349-96.506475-39.126459-25.293046 2.128217-44.77442 8.594724-66.384013 22.182574-15.552358 9.740687-20.29992 10.14996-24.147082 2.210072-3.929017-8.021743-3.929017-8.431015-4.256435-83.164189-0.409273-75.960991-0.163709-82.918625 3.519744-95.524221 7.694325-26.602718 27.748681-39.535731 64.910631-41.991367 5.238689-0.327418 92.168185-0.491127 193.258513-0.409273 167.392486 0.081855 184.418225 0.245564 191.457714 1.473381zm-43.710312 217.896723c14.733813 2.619345 30.695444 8.267306 41.090967 14.488249 10.395524 6.220943 18.417266 17.189448 20.791047 28.239808 1.473381 7.366906 0.491127 19.563229-2.455635 29.631335-1.391527 4.665707-2.53749 10.231815-2.53749 12.441886 0 6.957634-0.9004 6.793925 37.653078 7.366906 30.122462 0.491127 33.724061 0.654836 39.453877 2.210072 14.897522 4.092726 22.428137 10.722942 26.848281 23.73781 5.238689 15.879776 5.484253 46.984492 0.327418 64.010232-3.356035 11.214069-10.559233 20.627338-19.072102 24.965627-2.373781 1.145963-7.121343 2.946763-10.559233 3.929017l-6.302798 1.800799-283.625899 0.245564c-210.120544 0.163709-285.672262 0-291.402078-0.654836-14.406395-1.800799-26.848281-7.203197-32.005116-13.997122-8.021743-10.559233-12.196323-30.204317-11.05036-51.977618 1.473381-25.947882 8.431015-40.681695 22.591847-47.639329 11.705196-5.729816 14.570104-6.057234 54.023981-6.71207 24.065228-0.327418 36.343405-0.818545 37.816787-1.473381 6.302798-2.619345 6.875779-6.548361 3.192326-19.890647-6.139089-21.773301-5.402398-33.805915 2.701199-44.856275 6.875779-9.413269 22.83741-17.926139 43.874021-23.492246 9.495124-2.53749 29.795044-3.519744 41.172822-2.046363 13.58785 1.800799 27.01199 6.71207 34.706315 12.68745 8.431015 6.548361 14.078977 16.370903 24.392646 42.23693 11.705196 29.385771 14.488249 34.051479 21.773301 36.015987 2.210072 0.572982 17.844285 0.818545 47.639329 0.654836 42.482494-0.245564 44.528857-0.327418 47.639329-1.882654 5.320544-2.701199 8.021743-7.203197 12.68745-21.445883 6.302798-18.908393 12.032614-34.215188 15.552358-41.172822 8.103597-16.12534 23.246683-25.456755 47.066347-28.976499 5.07498-0.736691 28.894644 0.245564 36.015987 1.555236zM415.57538 479.585612c-8.021743 1.63709-9.085851 4.010871-9.085851 20.545484 0 14.242686 0.818545 17.598721 4.911271 19.317666 2.291926 0.982254 19.317666 1.145963 106.901998 1.145963 71.131575 0 105.183054-0.245564 107.311271-0.9004 4.993125-1.391527 5.893525-4.256435 5.893525-19.563229 0-14.32454-0.572982-16.452758-5.320544-19.153957-2.864908-1.718945-3.601599-1.718945-105.183054-1.800799-56.234053-0.081855-103.709672 0.081855-105.428617 0.409273z" fill="#272636"></path></g></g></svg>